<svg preserveAspectRatio="none" width="100%" height="100%" overflow="visible" style="display: block;" viewBox="0 0 123.003 30.6275" fill="none" xmlns="http://www.w3.org/2000/svg">
<g id="orange">
<path id="Vector" d="M122.821 12.0084H108.664C108.785 13.6067 109.313 14.8787 110.246 15.8243C111.179 16.7567 112.375 17.2228 113.836 17.2228C114.971 17.2228 115.911 16.9564 116.655 16.4237C117.365 15.9058 118.17 14.9602 119.071 13.5867C119.116 13.5193 119.204 13.4969 119.275 13.5357L122.864 15.5079C122.94 15.5498 122.966 15.6467 122.921 15.7212C122.351 16.662 121.749 17.4756 121.117 18.1618C120.454 18.8678 119.745 19.4538 118.987 19.92C118.23 20.3728 117.412 20.7058 116.533 20.9189C115.654 21.132 114.701 21.2386 113.673 21.2386C110.726 21.2386 108.359 20.3062 106.575 18.4415C104.79 16.5635 103.897 14.0728 103.897 10.9695C103.897 7.89274 104.763 5.40205 106.493 3.49741C108.238 1.6194 110.55 0.680401 113.43 0.680401C116.337 0.680401 118.636 1.59277 120.326 3.41749C122.003 5.2289 122.841 7.73957 122.841 10.9495L122.821 12.0084ZM118.136 8.33227C117.5 5.93482 115.965 4.73609 113.531 4.73609C112.977 4.73609 112.456 4.82267 111.97 4.99582C111.483 5.15565 111.037 5.39539 110.631 5.71505C110.239 6.0214 109.901 6.39433 109.617 6.83387C109.333 7.2734 109.117 7.77287 108.968 8.33227H118.136Z" fill="var(--fill-0, white)"/>
<path id="Vector_2" d="M100.691 19.5393C100.691 20.4583 100.657 21.2641 100.59 21.9567C100.536 22.6626 100.454 23.2819 100.346 23.8147C100.022 25.2798 99.3863 26.5385 98.4398 27.5907C96.6549 29.6152 94.2007 30.6275 91.0772 30.6275C88.4405 30.6275 86.2703 29.9282 84.5666 28.5297C82.8482 27.1235 81.8405 25.189 81.5435 22.7263C81.5326 22.6356 81.6039 22.556 81.6953 22.556H85.9798C86.0541 22.556 86.1176 22.6093 86.132 22.6821C86.3098 23.5801 86.5925 24.2772 86.9802 24.7737C87.9267 25.9857 89.3059 26.5918 91.1178 26.5918C94.4576 26.5918 96.1276 24.5739 96.1276 20.5382V17.8211C94.3157 19.6458 92.2266 20.5582 89.8603 20.5582C87.1695 20.5582 84.9654 19.5992 83.2482 17.6812C81.5174 15.7366 80.652 13.3059 80.652 10.389C80.652 7.55198 81.4566 5.14121 83.0657 3.15665C84.7964 1.05222 87.0816 0 89.9211 0C92.4091 0 94.4779 0.912364 96.1276 2.73709V0.693274C96.1276 0.608307 96.1964 0.539427 96.2814 0.539427H100.537C100.622 0.539427 100.691 0.608306 100.691 0.693273V19.5393ZM96.3101 10.3091C96.3101 8.41773 95.7963 6.906 94.7686 5.77387C93.7275 4.6151 92.3956 4.03571 90.773 4.03571C89.0422 4.03571 87.6765 4.66838 86.6759 5.9337C85.77 7.06583 85.317 8.53094 85.317 10.329C85.317 12.1005 85.77 13.5523 86.6759 14.6844C87.663 15.9231 89.0287 16.5424 90.773 16.5424C92.5173 16.5424 93.8965 15.9164 94.9106 14.6644C95.8436 13.5323 96.3101 12.0805 96.3101 10.3091Z" fill="var(--fill-0, white)"/>
<path id="Vector_3" d="M60.4883 1.37368C60.4883 1.28871 60.5572 1.21983 60.6421 1.21983H64.9183C65.0032 1.21983 65.0721 1.28871 65.0721 1.37367V3.01792C66.6677 1.45957 68.466 0.680401 70.4672 0.680401C72.7659 0.680401 74.5575 1.39298 75.8421 2.81813C76.9509 4.03018 77.5053 6.00808 77.5053 8.75183V20.5253C77.5053 20.6103 77.4364 20.6792 77.3514 20.6792H73.0753C72.9903 20.6792 72.9214 20.6103 72.9214 20.5253V9.8107C72.9214 7.89274 72.651 6.56748 72.1101 5.83493C71.5828 5.08905 70.6227 4.71612 69.23 4.71612C67.7156 4.71612 66.6406 5.20892 66.0051 6.19454C65.3831 7.16685 65.0721 8.86504 65.0721 11.2891V20.5253C65.0721 20.6103 65.0032 20.6792 64.9183 20.6792H60.6421C60.5572 20.6792 60.4883 20.6103 60.4883 20.5253V1.37368Z" fill="var(--fill-0, white)"/>
<path id="Vector_4" d="M51.8074 1.37367C51.8074 1.28871 51.8763 1.21983 51.9612 1.21983H56.2374C56.3223 1.21983 56.3912 1.28871 56.3912 1.37367V20.5253C56.3912 20.6103 56.3223 20.6792 56.2374 20.6792H51.9612C51.8763 20.6792 51.8074 20.6103 51.8074 20.5253V18.6413C49.9279 20.3728 47.9064 21.2386 45.7429 21.2386C43.0116 21.2386 40.7535 20.2663 38.9686 18.3217C37.1973 16.3371 36.3116 13.8597 36.3116 10.8896C36.3116 7.97266 37.1973 5.5419 38.9686 3.5973C40.7399 1.6527 42.9575 0.680401 45.6212 0.680401C47.9199 0.680401 49.982 1.61274 51.8074 3.47743V1.37367ZM40.9766 10.8896C40.9766 12.7542 41.4836 14.2726 42.4977 15.4447C43.5389 16.6301 44.8505 17.2228 46.4325 17.2228C48.1227 17.2228 49.4884 16.6501 50.5296 15.5047C51.5708 14.3192 52.0913 12.8142 52.0913 10.9895C52.0913 9.16472 51.5708 7.65966 50.5296 6.47425C49.4884 5.31548 48.1363 4.73609 46.4731 4.73609C44.9046 4.73609 43.593 5.32214 42.5383 6.49423C41.4971 7.67963 40.9766 9.14474 40.9766 10.8896Z" fill="var(--fill-0, white)"/>
<path id="Vector_5" d="M23.6523 1.37368C23.6523 1.28871 23.7212 1.21983 23.8062 1.21983H28.062C28.147 1.21983 28.2159 1.28871 28.2159 1.37367V2.95798C29.0542 2.09224 29.7979 1.49953 30.447 1.17987C31.1095 0.846891 31.8938 0.680401 32.7997 0.680401C33.9649 0.680401 35.1807 1.04248 36.4473 1.76663C36.5178 1.80695 36.5436 1.89559 36.5069 1.96803L34.5638 5.79591C34.5213 5.87964 34.4144 5.90592 34.3364 5.85367C33.5221 5.30841 32.726 5.03578 31.9479 5.03578C29.4599 5.03578 28.2159 6.88714 28.2159 10.5899V20.5253C28.2159 20.6103 28.147 20.6792 28.062 20.6792H23.8062C23.7212 20.6792 23.6523 20.6103 23.6523 20.5253V1.37368Z" fill="var(--fill-0, white)"/>
<path id="Vector_6" d="M0 10.8096C0 7.99929 0.991498 5.6085 2.97449 3.63726C4.95749 1.66602 7.37385 0.680401 10.2236 0.680401C13.0865 0.680401 15.516 1.67268 17.5121 3.65724C19.4819 5.6418 20.4669 8.07921 20.4669 10.9695C20.4669 13.8864 19.4754 16.3304 17.4924 18.3017C15.4963 20.2596 13.0471 21.2386 10.1448 21.2386C7.26879 21.2386 4.85899 20.2396 2.9154 18.2418C0.971799 16.2705 0 13.7931 0 10.8096ZM4.53068 10.8896C4.53068 12.8342 5.04285 14.3725 6.06718 15.5047C7.11777 16.6501 8.50324 17.2228 10.2236 17.2228C11.9571 17.2228 13.3425 16.6568 14.38 15.5246C15.4175 14.3925 15.9362 12.8808 15.9362 10.9895C15.9362 9.09813 15.4175 7.5864 14.38 6.45427C13.3294 5.30882 11.9439 4.73609 10.2236 4.73609C8.52951 4.73609 7.15717 5.30882 6.10657 6.45427C5.05598 7.59972 4.53068 9.07815 4.53068 10.8896Z" fill="var(--fill-0, white)"/>
</g>
</svg>
