<svg preserveAspectRatio="none" width="100%" height="100%" overflow="visible" style="display: block;" viewBox="0 0 117.23 41.0373" fill="none" xmlns="http://www.w3.org/2000/svg">
<g id="impact">
<path id="Vector" d="M113.68 15.1837V30.2936C113.68 30.3786 113.611 30.4475 113.526 30.4475H109.27C109.185 30.4475 109.117 30.3786 109.117 30.2936V15.1837H105.785C105.7 15.1837 105.631 15.1148 105.631 15.0299V11.142C105.631 11.057 105.7 10.9882 105.785 10.9882H109.117V4.00958C109.117 3.92461 109.185 3.85573 109.27 3.85573H113.526C113.611 3.85573 113.68 3.92461 113.68 4.00958V10.9882H117.076C117.161 10.9882 117.23 11.057 117.23 11.142V15.0299C117.23 15.1148 117.161 15.1837 117.076 15.1837H113.68Z" fill="var(--fill-0, white)"/>
<path id="Vector_2" d="M102.878 11.7852C102.928 11.8115 102.96 11.8639 102.96 11.9208V17.3764C102.96 17.5203 102.779 17.5861 102.684 17.4772C101.753 16.4002 100.912 15.6494 100.161 15.2247C99.3495 14.7452 98.3962 14.5055 97.3009 14.5055C95.5837 14.5055 94.1572 15.0982 93.0213 16.2836C91.8855 17.469 91.3176 18.9541 91.3176 20.7389C91.3176 22.5636 91.8652 24.062 92.9605 25.2341C94.0693 26.4062 95.4823 26.9922 97.1995 26.9922C98.2948 26.9922 99.2616 26.7591 100.1 26.293C100.843 25.8784 101.704 25.1065 102.685 23.9775C102.779 23.869 102.96 23.9348 102.96 24.0784V29.4953C102.96 29.5531 102.927 29.6061 102.876 29.6321C101.051 30.5493 99.2268 31.0079 97.4023 31.0079C94.3465 31.0079 91.7909 30.0356 89.7356 28.091C87.6803 26.1331 86.6526 23.7024 86.6526 20.7988C86.6526 17.8952 87.6938 15.4445 89.7761 13.4466C91.8585 11.4487 94.4141 10.4498 97.4429 10.4498C99.3593 10.4498 101.171 10.8949 102.878 11.7852Z" fill="var(--fill-0, white)"/>
<path id="Vector_3" d="M78.9032 11.1431C78.9032 11.0581 78.9721 10.9892 79.0571 10.9892H83.3332C83.4182 10.9892 83.4871 11.0581 83.4871 11.1431V30.2947C83.4871 30.3797 83.4182 30.4485 83.3332 30.4485H79.0571C78.9721 30.4485 78.9032 30.3797 78.9032 30.2947V28.4107C77.0237 30.1422 75.0023 31.0079 72.8388 31.0079C70.1074 31.0079 67.8493 30.0356 66.0645 28.091C64.2931 26.1065 63.4075 23.6291 63.4075 20.6589C63.4075 17.742 64.2931 15.3113 66.0645 13.3667C67.8358 11.4221 70.0533 10.4498 72.7171 10.4498C75.0158 10.4498 77.0778 11.3821 78.9032 13.2468V11.1431ZM68.0724 20.6589C68.0724 22.5236 68.5795 24.042 69.5936 25.2141C70.6348 26.3995 71.9464 26.9922 73.5284 26.9922C75.2186 26.9922 76.5843 26.4195 77.6255 25.274C78.6666 24.0886 79.1872 22.5836 79.1872 20.7588C79.1872 18.9341 78.6666 17.429 77.6255 16.2436C76.5843 15.0849 75.2321 14.5055 73.569 14.5055C72.0005 14.5055 70.6889 15.0915 69.6342 16.2636C68.593 17.449 68.0724 18.9141 68.0724 20.6589Z" fill="var(--fill-0, white)"/>
<path id="Vector_4" d="M45.6588 40.8835C45.6588 40.9684 45.5899 41.0373 45.505 41.0373H41.2491C41.1641 41.0373 41.0953 40.9684 41.0953 40.8835V11.1431C41.0953 11.0581 41.1641 10.9892 41.2491 10.9892H45.505C45.5899 10.9892 45.6588 11.0581 45.6588 11.1431V13.107C47.4572 11.3355 49.4989 10.4498 51.7841 10.4498C54.502 10.4498 56.7398 11.4354 58.4976 13.4066C60.2825 15.3646 61.1749 17.8353 61.1749 20.8188C61.1749 23.7357 60.2892 26.1664 58.5179 28.111C56.7601 30.0423 54.5425 31.008 51.8652 31.008C49.553 31.008 47.4842 30.0956 45.6588 28.2709V40.8835ZM56.5099 20.8387C56.5099 18.9741 55.9961 17.4557 54.9685 16.2836C53.9273 15.0982 52.6157 14.5055 51.0337 14.5055C49.357 14.5055 47.998 15.0782 46.9569 16.2237C45.9157 17.3691 45.3951 18.8742 45.3951 20.7389C45.3951 22.5636 45.9157 24.0687 46.9569 25.2541C47.9845 26.4128 49.3367 26.9922 51.0134 26.9922C52.5954 26.9922 53.9002 26.4062 54.9279 25.2341C55.9826 24.062 56.5099 22.5969 56.5099 20.8387Z" fill="var(--fill-0, white)"/>
<path id="Vector_5" d="M9.37199 11.143C9.37199 11.0581 9.44087 10.9892 9.52584 10.9892H13.7817C13.8667 10.9892 13.9355 11.0581 13.9355 11.143V12.7873C14.8145 11.8816 15.5649 11.2689 16.1869 10.9492C16.8495 10.6162 17.681 10.4498 18.6816 10.4498C20.9127 10.4498 22.6773 11.4087 23.9754 13.3267C25.4087 11.4087 27.349 10.4498 29.7964 10.4498C34.245 10.4498 36.4694 13.1069 36.4694 18.4213V30.2947C36.4694 30.3796 36.4005 30.4485 36.3155 30.4485H32.0394C31.9544 30.4485 31.8855 30.3796 31.8855 30.2947V19.64C31.8855 17.7753 31.6556 16.4567 31.1959 15.6842C30.7227 14.8984 29.9452 14.5054 28.8634 14.5054C27.6059 14.5054 26.6864 14.9716 26.105 15.904C25.5371 16.8363 25.2532 18.3347 25.2532 20.3992V30.2947C25.2532 30.3796 25.1843 30.4485 25.0993 30.4485H20.8232C20.7382 30.4485 20.6693 30.3796 20.6693 30.2947V19.6999C20.6693 16.2369 19.6552 14.5054 17.627 14.5054C16.3424 14.5054 15.4026 14.9783 14.8077 15.9239C14.2263 16.8696 13.9355 18.3614 13.9355 20.3992V30.2947C13.9355 30.3796 13.8667 30.4485 13.7817 30.4485H9.52584C9.44087 30.4485 9.37199 30.3796 9.37199 30.2947V11.143Z" fill="var(--fill-0, white)"/>
<path id="Vector_6" d="M5.09931 10.9883C5.18428 10.9883 5.25316 11.0572 5.25316 11.1422V30.2938C5.25316 30.3788 5.18428 30.4477 5.09931 30.4477H0.84345C0.758483 30.4477 0.689603 30.3788 0.689603 30.2938V11.1422C0.689603 11.0572 0.758483 10.9883 0.84345 10.9883H5.09931ZM0 2.89692C0 2.11109 0.290715 1.43181 0.872145 0.859088C1.45358 0.286363 2.14994 0 2.96124 0C3.78606 0 4.48918 0.286363 5.07061 0.859088C5.65204 1.41849 5.94276 2.10443 5.94276 2.9169C5.94276 3.72937 5.65204 4.42197 5.07061 4.9947C4.5027 5.56742 3.80634 5.85378 2.98152 5.85378C2.1567 5.85378 1.45358 5.56742 0.872145 4.9947C0.290715 4.42197 0 3.72271 0 2.89692Z" fill="var(--fill-0, white)"/>
</g>
</svg>
